<?xml version="1.0" encoding="UTF-8"?>
<svg version="1.1" xmlns="http://www.w3.org/2000/svg" width="666" height="312">
<path d="M0 0 C2.28866355 1.71649766 4.47340045 3.5041962 6.640625 5.37109375 C7.24648438 5.8815625 7.85234375 6.39203125 8.4765625 6.91796875 C20.9071348 18.27984931 27.59042736 35.72084271 28.86181641 52.24609375 C29.65791072 72.2737941 26.62673366 87.97810429 16.640625 105.37109375 C16.19203125 106.16128906 15.7434375 106.95148438 15.28125 107.765625 C7.39489452 119.71686124 -7.04435136 127.60285752 -20.484375 131.18359375 C-38.35254597 134.6039037 -61.46211191 134.84144981 -77.38671875 124.77734375 C-78.03769531 124.31328125 -78.68867187 123.84921875 -79.359375 123.37109375 C-80.10316406 122.84515625 -80.84695313 122.31921875 -81.61328125 121.77734375 C-98.52550107 109.18618178 -107.27440445 93.10354577 -110.359375 72.37109375 C-110.66398384 68.67842686 -110.74068235 65.01289925 -110.734375 61.30859375 C-110.73276367 60.31069824 -110.73115234 59.31280273 -110.72949219 58.28466797 C-110.53252029 46.22110464 -108.32204245 34.00880943 -102.359375 23.37109375 C-101.63814453 22.06978516 -101.63814453 22.06978516 -100.90234375 20.7421875 C-91.80917683 5.4307425 -78.7084485 -4.52472805 -61.453125 -8.9375 C-60.4321875 -9.16566406 -59.41125 -9.39382812 -58.359375 -9.62890625 C-57.58182861 -9.80325195 -56.80428223 -9.97759766 -56.00317383 -10.15722656 C-37.23936074 -13.50487518 -15.84989519 -10.94272565 0 0 Z M-63.671875 30.37109375 C-69.79359615 37.90551978 -73.11070874 46.69087154 -73.359375 56.37109375 C-73.41738281 57.40943359 -73.41738281 57.40943359 -73.4765625 58.46875 C-73.87489901 70.6622733 -71.74602931 82.1663143 -63.46875 91.50390625 C-55.95011581 98.57852661 -48.76735033 99.86910279 -38.72338867 99.79101562 C-30.80443029 99.51971717 -24.59823499 97.64829254 -18.546875 92.37109375 C-10.55418824 83.5678279 -7.79533976 70.10554528 -8.04296875 58.5 C-9.2010946 47.0474221 -12.08276824 36.12064168 -20.671875 28.05859375 C-32.76474882 18.63590863 -52.86771017 19.34684408 -63.671875 30.37109375 Z " fill="#1F1F1F" transform="translate(604.359375,101.62890625)"/>
<path d="M0 0 C2.28866355 1.71649766 4.47340045 3.5041962 6.640625 5.37109375 C7.24648437 5.8815625 7.85234375 6.39203125 8.4765625 6.91796875 C20.9071348 18.27984931 27.59042736 35.72084271 28.86181641 52.24609375 C29.71088233 73.60642463 26.71320053 94.29719924 12.140625 110.93359375 C10.66234224 112.43446487 9.16367641 113.91567339 7.640625 115.37109375 C7.02832031 116.00273437 6.41601562 116.634375 5.78515625 117.28515625 C-7.92785843 130.55958837 -25.8320663 132.86833574 -44.02294922 132.79541016 C-64.21320043 132.34186765 -80.42131676 125.16379645 -94.44921875 110.578125 C-106.21488252 96.98385091 -110.76447659 78.98876024 -110.734375 61.30859375 C-110.73276367 60.30997314 -110.73115234 59.31135254 -110.72949219 58.2824707 C-110.5812881 49.20061127 -109.05605979 41.01551887 -106.359375 32.37109375 C-105.94365234 30.9634375 -105.94365234 30.9634375 -105.51953125 29.52734375 C-102.99063688 22.16208457 -98.28664675 16.3101425 -93.359375 10.37109375 C-92.74191406 9.62601563 -92.12445313 8.8809375 -91.48828125 8.11328125 C-69.85389472 -15.61475559 -25.69004195 -17.73633691 0 0 Z M-63.50390625 30.1640625 C-72.94131087 41.38960695 -74.26195583 55.29264195 -73.1171875 69.34375 C-71.80867969 79.69164338 -67.73520746 88.49894957 -59.39453125 95 C-51.24447396 100.49072958 -41.87048809 100.36437256 -32.359375 99.37109375 C-25.21156005 97.84719412 -19.58316369 94.37275268 -15.359375 88.37109375 C-7.51382794 73.57722975 -6.68368284 58.93741386 -11.1640625 43.0546875 C-14.14152331 33.87904847 -19.36820644 28.09354933 -27.796875 23.49609375 C-39.72170947 19.58325744 -54.33287522 21.4689732 -63.50390625 30.1640625 Z " fill="#1F1F1F" transform="translate(238.359375,101.62890625)"/>
<path d="M0 0 C9.95747428 7.26293797 17.47195658 16.13186346 20.19140625 28.28515625 C20.70859595 31.68289616 20.68068256 34.87953144 20.5 38.3125 C19.5 39.3125 19.5 39.3125 16.17358398 39.42602539 C14.69774444 39.42586629 13.22189931 39.42017314 11.74609375 39.41015625 C10.97064713 39.4087413 10.1952005 39.40732635 9.39625549 39.40586853 C6.90996506 39.40025345 4.4237634 39.38769846 1.9375 39.375 C0.25586067 39.36998694 -1.42578006 39.3654237 -3.10742188 39.36132812 C-7.23831566 39.35027913 -11.36914276 39.33300445 -15.5 39.3125 C-16.83333333 35.3125 -18.16666667 31.3125 -19.5 27.3125 C-21.69932935 26.14736387 -21.69932935 26.14736387 -24.5 25.3125 C-25.551875 24.94125 -26.60375 24.57 -27.6875 24.1875 C-35.98054626 22.28417791 -42.66122566 23.21866882 -50.5 26.3125 C-51.49 26.6425 -52.48 26.9725 -53.5 27.3125 C-55.22538473 31.21477201 -55.87239342 35.02344584 -54.6875 39.125 C-47.47001602 46.34248398 -35.22260472 47.32905959 -25.625 49.3125 C7.95475525 56.2830391 7.95475525 56.2830391 18.87109375 71.43359375 C24.03343375 80.55744166 23.79275207 92.47236878 21.8828125 102.578125 C18.18618759 114.02784818 9.67601182 122.30698483 -0.5 128.3125 C-11.17491344 133.32195658 -22.13239498 134.68730339 -33.8125 134.625 C-34.91682373 134.61936035 -36.02114746 134.6137207 -37.15893555 134.60791016 C-54.37227675 134.35143048 -68.77637265 129.33048424 -81.5 117.3125 C-86.84060774 111.64387028 -90.12324024 105.71112312 -92.5 98.3125 C-92.69851563 97.72082031 -92.89703125 97.12914062 -93.1015625 96.51953125 C-93.70648019 93.16876168 -93.5 89.71743497 -93.5 86.3125 C-81.62 86.3125 -69.74 86.3125 -57.5 86.3125 C-56.18 89.2825 -54.86 92.2525 -53.5 95.3125 C-50.19778851 100.13880911 -45.00238818 101.24452592 -39.5 102.3125 C-32.03077644 103.09873406 -22.9276321 102.80641376 -16.77734375 97.953125 C-15.28873004 96.04114409 -14.89726806 94.76423504 -14.5625 92.375 C-14.45035156 91.70597656 -14.33820313 91.03695312 -14.22265625 90.34765625 C-14.6430371 87.26288972 -16.11320832 86.22353253 -18.5 84.3125 C-26.2420504 80.78303585 -35.084973 79.53841278 -43.375 77.875 C-60.55297756 74.40705824 -77.90103036 70.57399715 -88.5 55.3125 C-93.63876571 45.62378548 -93.64887539 32.60932252 -90.5 22.3125 C-85.09992182 9.11714768 -74.24966094 0.43774499 -61.375 -5 C-42.0365844 -12.60460827 -17.66824047 -10.94276702 0 0 Z " fill="#1E1E1E" transform="translate(460.5,99.6875)"/>
<path d="M0 0 C12.21 0 24.42 0 37 0 C37 10.89 37 21.78 37 33 C44.80838431 32.96044751 44.80838431 32.96044751 52.61669922 32.90991211 C53.58623535 32.90741455 54.55577148 32.90491699 55.5546875 32.90234375 C56.54968262 32.89710693 57.54467773 32.89187012 58.56982422 32.88647461 C61 33 61 33 63 34 C63 43.9 63 53.8 63 64 C55.24256629 67.87871686 45.67307455 65 37 65 C37 89.09 37 113.18 37 138 C46.24 138 55.48 138 65 138 C65.66 138.33 66.32 138.66 67 139 C67 148.9 67 158.8 67 169 C64.2373743 170.38131285 62.00536598 170.12721691 58.91381836 170.12939453 C57.63586899 170.13254669 56.35791962 170.13569885 55.04124451 170.13894653 C53.64077724 170.13715689 52.24031028 170.13510597 50.83984375 170.1328125 C49.41020186 170.13348579 47.98056008 170.13445602 46.55091858 170.13571167 C43.55403555 170.137187 40.55718231 170.13503906 37.56030273 170.13037109 C33.71091058 170.12466874 29.86158806 170.12795704 26.01219845 170.13394356 C23.06034313 170.13754923 20.10850444 170.13641065 17.15664864 170.13381577 C15.73681187 170.13314678 14.31697362 170.13397393 12.8971386 170.13629532 C10.91702171 170.13882246 8.93689955 170.13429071 6.95678711 170.12939453 C5.82808701 170.12859894 4.6993869 170.12780334 3.53648376 170.12698364 C1 170 1 170 0 169 C-0.09531163 167.6465941 -0.1218872 166.28826016 -0.12025452 164.9315033 C-0.12231651 163.61683327 -0.12231651 163.61683327 -0.12442017 162.27560425 C-0.12082489 161.30672272 -0.11722961 160.33784119 -0.11352539 159.33959961 C-0.11374443 157.81782356 -0.11374443 157.81782356 -0.1139679 156.26530457 C-0.11326829 152.89429627 -0.10547368 149.52334246 -0.09765625 146.15234375 C-0.09579224 143.82206757 -0.09436826 141.491791 -0.09336853 139.16151428 C-0.08954202 133.01462735 -0.0797106 126.86776387 -0.06866455 120.72088623 C-0.05845329 114.45390134 -0.05387152 108.18691268 -0.04882812 101.91992188 C-0.03808845 89.61327092 -0.02101044 77.30663741 0 65 C-0.99902344 65.01160156 -1.99804688 65.02320312 -3.02734375 65.03515625 C-4.31769531 65.04417969 -5.60804688 65.05320312 -6.9375 65.0625 C-8.22527344 65.07410156 -9.51304687 65.08570312 -10.83984375 65.09765625 C-14 65 -14 65 -15 64 C-15.10012401 61.79349344 -15.1308118 59.58377614 -15.1328125 57.375 C-15.13376923 56.71290527 -15.13472595 56.05081055 -15.13571167 55.36865234 C-15.13639326 53.96647039 -15.13454042 52.5642853 -15.13037109 51.16210938 C-15.12502246 49.00904287 -15.1303167 46.85618498 -15.13671875 44.703125 C-15.13605796 43.34374954 -15.13477679 41.9843742 -15.1328125 40.625 C-15.13168457 39.37976563 -15.13055664 38.13453125 -15.12939453 36.8515625 C-15 34 -15 34 -14 33 C-9.38 33 -4.76 33 0 33 C0 22.11 0 11.22 0 0 Z " fill="#1E1E1E" transform="translate(289,61)"/>
<path d="M0 0 C11.88 0 23.76 0 36 0 C36 60.39 36 120.78 36 183 C14.22 183 -7.56 183 -30 183 C-30 173.1 -30 163.2 -30 153 C-20.1 153 -10.2 153 0 153 C0 102.51 0 52.02 0 0 Z " fill="#1E1E1E" transform="translate(76,95)"/>
<path d="M0 0 C1.16787176 4.92725588 2.32523817 9.856816 3.47290039 14.78881836 C3.86487015 16.4665788 4.25971191 18.14367094 4.6574707 19.82006836 C5.22842096 22.22860883 5.78902908 24.63935695 6.34765625 27.05078125 C6.52780777 27.80087967 6.70795929 28.55097809 6.89356995 29.32380676 C8.11387171 34.65838488 8.11387171 34.65838488 7 38 C4.42350375 38.8446994 1.9924965 39.48206288 -0.6484375 40.04296875 C-1.4167691 40.21629227 -2.18510071 40.38961578 -2.97671509 40.56819153 C-4.6045381 40.93300285 -6.23378007 41.29153027 -7.86425781 41.64428711 C-10.36043133 42.18434799 -12.85221635 42.74169579 -15.34375 43.30273438 C-16.92425331 43.6546617 -18.50497593 44.00560584 -20.0859375 44.35546875 C-20.83289886 44.52104782 -21.57986023 44.68662689 -22.34945679 44.85722351 C-25.29495539 45.49291126 -27.97690878 46 -31 46 C-32.1449091 41.08998423 -33.28407589 36.17868481 -34.41796875 31.26611328 C-34.8044173 29.5955014 -35.19242563 27.92524953 -35.58203125 26.25537109 C-36.14214096 23.85347205 -36.6966073 21.45032931 -37.25 19.046875 C-37.42499023 18.30193787 -37.59998047 17.55700073 -37.78027344 16.78948975 C-38.55457232 13.40339269 -39 10.49603554 -39 7 C-34.09138751 5.83068479 -29.18015433 4.67338769 -24.26611328 3.52709961 C-22.59509218 3.13553004 -20.92483231 2.74069694 -19.25537109 2.3425293 C-16.85447136 1.77051244 -14.45107165 1.21031843 -12.046875 0.65234375 C-11.30193787 0.47219223 -10.55700073 0.29204071 -9.78948975 0.10643005 C-3.3766558 -1.36068436 -3.3766558 -1.36068436 0 0 Z " fill="#1F1F1F" transform="translate(105,39)"/>
<path d="M0 0 C0.33 0 0.66 0 1 0 C1.09765625 6.15234375 1.09765625 6.15234375 1 8 C0 9 0 9 -3.32641602 9.11352539 C-4.80225556 9.11336629 -6.27810069 9.10767314 -7.75390625 9.09765625 C-8.52935287 9.0962413 -9.3047995 9.09482635 -10.10374451 9.09336853 C-12.59003494 9.08775345 -15.0762366 9.07519846 -17.5625 9.0625 C-19.24413933 9.05748694 -20.92578006 9.0529237 -22.60742188 9.04882812 C-26.73831566 9.03777913 -30.86914276 9.02050445 -35 9 C-35.33 7.68 -35.66 6.36 -36 5 C-35.01 5.33 -34.02 5.66 -33 6 C-33 6.33 -33 6.66 -33 7 C-22.11 7 -11.22 7 0 7 C0 4.69 0 2.38 0 0 Z " fill="#131313" transform="translate(480,130)"/>
<path d="M0 0 C0.66 0.33 1.32 0.66 2 1 C0.35412731 10.276737 -3.26724431 18.48811324 -9 26 C-9.66 26 -10.32 26 -11 26 C-11.33 26.66 -11.66 27.32 -12 28 C-14.32156597 28.40729228 -16.6568787 28.74438677 -19 29 C-17.02255832 27.51581771 -15.04772168 26.0340598 -13.03515625 24.59765625 C-5.07405933 18.40218874 -2.37752054 9.51008218 0 0 Z " fill="#121212" transform="translate(595,171)"/>
<path d="M0 0 C1.8133922 3.20010388 2.52213974 6.13283843 3.125 9.75 C3.29257813 10.73484375 3.46015625 11.7196875 3.6328125 12.734375 C3.75398438 13.48203125 3.87515625 14.2296875 4 15 C-16.43525075 22.3989701 -16.43525075 22.3989701 -23 20 C-22.28714844 19.80664062 -21.57429688 19.61328125 -20.83984375 19.4140625 C-19.40318359 19.02347656 -19.40318359 19.02347656 -17.9375 18.625 C-16.93203125 18.35171875 -15.9265625 18.0784375 -14.890625 17.796875 C-12.64981421 17.17913797 -10.41686565 16.5328456 -8.1875 15.875 C-5.13262931 15.03640805 -2.13237591 14.45839648 1 14 C1.33 12.35 1.66 10.7 2 9 C1.01 8.67 0.02 8.34 -1 8 C-0.34 8 0.32 8 1 8 C0.649375 7.05125 0.29875 6.1025 -0.0625 5.125 C-1 2 -1 2 0 0 Z " fill="#0E0E0E" transform="translate(109,61)"/>
<path d="M0 0 C-0.99 0.66 -1.98 1.32 -3 2 C-3.99 1.67 -4.98 1.34 -6 1 C-6.33 1.66 -6.66 2.32 -7 3 C-8.9113955 3.26826604 -10.82523947 3.52585093 -12.74609375 3.71484375 C-14.95363394 3.99413393 -16.98206259 4.47205675 -19.125 5.0625 C-22.6117128 5.90605955 -25.43980413 6.17800979 -29 6 C-28.67 6.86625 -28.34 7.7325 -28 8.625 C-27.01268659 11.95718275 -26.83579026 14.55159538 -27 18 C-27.33 18 -27.66 18 -28 18 C-28.33872513 16.58461283 -28.67074624 15.16762037 -29 13.75 C-29.185625 12.96109375 -29.37125 12.1721875 -29.5625 11.359375 C-30 9 -30 9 -30 5 C-25.75349123 3.96425527 -21.50234289 2.94900139 -17.25 1.9375 C-15.44015625 1.49567383 -15.44015625 1.49567383 -13.59375 1.04492188 C-12.43359375 0.77099609 -11.2734375 0.49707031 -10.078125 0.21484375 C-8.47565918 -0.17006226 -8.47565918 -0.17006226 -6.84082031 -0.56274414 C-4.11688107 -0.9820098 -2.56421661 -0.91154114 0 0 Z " fill="#0A0A0A" transform="translate(96,41)"/>
<path d="M0 0 C0.928125 0.33 1.85625 0.66 2.8125 1 C5.92029291 2.14967004 5.92029291 2.14967004 9 2 C9 1.34 9 0.68 9 0 C9.66 0.33 10.32 0.66 11 1 C11 1.33 11 1.66 11 2 C14.465 1.505 14.465 1.505 18 1 C17.67 1.99 17.34 2.98 17 4 C16.85507877 5.40664926 16.75371069 6.8181133 16.68359375 8.23046875 C16.64169922 9.03291016 16.59980469 9.83535156 16.55664062 10.66210938 C16.51732422 11.49548828 16.47800781 12.32886719 16.4375 13.1875 C16.39431641 14.03248047 16.35113281 14.87746094 16.30664062 15.74804688 C16.20068482 17.83184433 16.0998498 19.91590103 16 22 C15.67 22 15.34 22 15 22 C15 16.06 15 10.12 15 4 C10.38 4 5.76 4 1 4 C0.67 2.68 0.34 1.36 0 0 Z " fill="#121212" transform="translate(274,122)"/>
<path d="M0 0 C1.89213369 2.38573379 3.02391783 4.07175348 4 7 C7.17242648 8.31035007 9.55881664 9 13 9 C13 9.66 13 10.32 13 11 C9.37 11.66 5.74 12.32 2 13 C0 4.5 0 4.5 0 0 Z " fill="#131313" transform="translate(72,72)"/>
<path d="M0 0 C0.33 0 0.66 0 1 0 C1.02505615 0.85754883 1.0501123 1.71509766 1.07592773 2.59863281 C1.17123412 5.7893437 1.27045751 8.97990219 1.37231445 12.17041016 C1.4155455 13.54959378 1.45722866 14.92882685 1.49731445 16.30810547 C1.55530403 18.29406938 1.61937723 20.27985269 1.68359375 22.265625 C1.72025146 23.45961914 1.75690918 24.65361328 1.79467773 25.88378906 C1.88540065 28.89548482 1.88540065 28.89548482 2.64477539 31.29589844 C2.76199951 31.85825195 2.87922363 32.42060547 3 33 C2.34 33.66 1.68 34.32 1 35 C-1.625 34.625 -1.625 34.625 -4 34 C-2.02 33.505 -2.02 33.505 0 33 C0 22.11 0 11.22 0 0 Z " fill="#101010" transform="translate(289,61)"/>
<path d="M0 0 C0.66 0.33 1.32 0.66 2 1 C2 4.63 2 8.26 2 12 C2.66 12.33 3.32 12.66 4 13 C3.40138258 15.35171131 2.73075648 17.6859378 2 20 C1.34 20.33 0.68 20.66 0 21 C-0.71148265 13.81949816 -1.25818438 7.12971149 0 0 Z " fill="#131313" transform="translate(369,125)"/>
<path d="M0 0 C0 0.33 0 0.66 0 1 C-1.07378906 1.06058594 -2.14757812 1.12117188 -3.25390625 1.18359375 C-4.69011315 1.26807651 -6.12631058 1.35272054 -7.5625 1.4375 C-8.26697266 1.47681641 -8.97144531 1.51613281 -9.69726562 1.55664062 C-14.1798541 1.82518279 -18.56293497 2.30616197 -23 3 C-23 2.34 -23 1.68 -23 1 C-15.85518438 -2.17547361 -7.49949129 -1.72006681 0 0 Z " fill="#0E0E0E" transform="translate(206,123)"/>
<path d="M0 0 C0.33 0 0.66 0 1 0 C1.05420701 2.56278699 1.09377007 5.12441483 1.125 7.6875 C1.14175781 8.40873047 1.15851563 9.12996094 1.17578125 9.87304688 C1.21434554 14.09583627 0.75067155 17.17471374 -1 21 C-1 21.99 -1 22.98 -1 24 C-1.33 24.66 -1.66 25.32 -2 26 C-2.66 26 -3.32 26 -4 26 C-3.87882813 25.46375 -3.75765625 24.9275 -3.6328125 24.375 C-1.90862706 16.31111731 -0.95430063 8.18262027 0 0 Z " fill="#101010" transform="translate(230,158)"/>
<path d="M0 0 C7.59762024 -0.38999191 13.84466021 0.39241413 21 3 C21 3.66 21 4.32 21 5 C19.783125 4.67 18.56625 4.34 17.3125 4 C11.2337506 2.62111435 5.19875085 2.82754634 -1 3 C-0.67 2.01 -0.34 1.02 0 0 Z " fill="#101010" transform="translate(417,120)"/>
<path d="M0 0 C1.3921875 0.2784375 1.3921875 0.2784375 2.8125 0.5625 C6.01343771 1.24123881 6.01343771 1.24123881 9 0 C11.87517597 2.17105124 14.4542872 4.4542872 17 7 C10.77012202 6.49487476 5.54525767 3.67395877 0 1 C0 0.67 0 0.34 0 0 Z " fill="#101010" transform="translate(390,225)"/>
<path d="M0 0 C0.33 0.66 0.66 1.32 1 2 C0.04663979 3.31611677 -0.91285774 4.62778961 -1.875 5.9375 C-2.40867188 6.66839844 -2.94234375 7.39929688 -3.4921875 8.15234375 C-5 10 -5 10 -7 11 C-7.66 10.34 -8.32 9.68 -9 9 C-9 8.34 -9 7.68 -9 7 C-8.01 6.67 -7.02 6.34 -6 6 C-5.5359375 5.0409375 -5.5359375 5.0409375 -5.0625 4.0625 C-3.7657662 1.54531085 -2.5778263 1.03113052 0 0 Z " fill="#151515" transform="translate(255,203)"/>
<path d="M0 0 C5 2 10 4 15 6 C14.401875 6.144375 13.80375 6.28875 13.1875 6.4375 C10.66520828 7.0860893 8.33246322 7.83376839 6 9 C4 7 4 7 3 4.9375 C2.15410058 2.83134399 2.15410058 2.83134399 0 2 C0 1.34 0 0.68 0 0 Z " fill="#131313" transform="translate(407,197)"/>
<path d="M0 0 C8.25 0 16.5 0 25 0 C20.59678915 3.30240813 18.25840477 3.43091169 13.0625 3.3125 C12.00772461 3.31733398 12.00772461 3.31733398 10.93164062 3.32226562 C6.85877756 3.28027735 3.66310431 2.7992939 0 1 C0 0.67 0 0.34 0 0 Z " fill="#101010" transform="translate(551,200)"/>
<path d="M0 0 C0.66 0.33 1.32 0.66 2 1 C1.01 1.33 0.02 1.66 -1 2 C-1.33 2.99 -1.66 3.98 -2 5 C-3.75 6.75 -3.75 6.75 -6 8 C-8.75 7.6875 -8.75 7.6875 -11 7 C-8.84658594 4.65082102 -6.78332063 3.17556996 -3.9375 1.75 C-3.24527344 1.39421875 -2.55304688 1.0384375 -1.83984375 0.671875 C-1.23269531 0.45015625 -0.62554687 0.2284375 0 0 Z " fill="#161616" transform="translate(169,95)"/>
<path d="M0 0 C0.71285156 0.27714844 1.42570313 0.55429688 2.16015625 0.83984375 C7.47311053 2.84918447 12.33419408 4.49637281 18 5 C18 5.33 18 5.66 18 6 C16.35 6 14.7 6 13 6 C12.67 6.66 12.34 7.32 12 8 C12 7.34 12 6.68 12 6 C11.42765625 6.21269531 10.8553125 6.42539063 10.265625 6.64453125 C7.28625875 7.11198354 6.23674817 6.32230667 3.75 4.6875 C3.04359375 4.23761719 2.3371875 3.78773438 1.609375 3.32421875 C1.07828125 2.88722656 0.5471875 2.45023438 0 2 C0 1.34 0 0.68 0 0 Z " fill="#111111" transform="translate(178,196)"/>
<path d="M0 0 C0.66 1.32 1.32 2.64 2 4 C-0.66666667 6.66666667 -3.33333333 9.33333333 -6 12 C-5.54300722 6.97307937 -3.00758252 3.85103739 0 0 Z " fill="#131313" transform="translate(141,117)"/>
<path d="M0 0 C0 3.63195496 -0.95453155 4.74713911 -3 7.6875 C-3.556875 8.49574219 -4.11375 9.30398437 -4.6875 10.13671875 C-5.120625 10.75160156 -5.55375 11.36648437 -6 12 C-7 9 -7 9 -6.375 7.125 C-4.58875191 4.36443477 -2.38005046 2.25478464 0 0 Z " fill="#131313" transform="translate(623,200)"/>
<path d="M0 0 C4.42857143 5.14285714 4.42857143 5.14285714 5 9 C1.42895561 7.12050295 -0.54744301 5.82946843 -2 2 C-1.34 2 -0.68 2 0 2 C0 1.34 0 0.68 0 0 Z " fill="#161616" transform="translate(621,120)"/>
<path d="M0 0 C0.66 1.32 1.32 2.64 2 4 C1.54625 4.4125 1.0925 4.825 0.625 5.25 C-1.05950374 7.06408095 -1.99265971 8.75285627 -3 11 C-4 8 -4 8 -3.22265625 5.95703125 C-2.83980469 5.24933594 -2.45695312 4.54164062 -2.0625 3.8125 C-1.68222656 3.09707031 -1.30195313 2.38164063 -0.91015625 1.64453125 C-0.60980469 1.10183594 -0.30945313 0.55914062 0 0 Z " fill="#131313" transform="translate(503,123)"/>
<path d="M0 0 C1.32 0 2.64 0 4 0 C4.99 1.98 5.98 3.96 7 6 C6.01 6 5.02 6 4 6 C0 1.54285714 0 1.54285714 0 0 Z " fill="#141414" transform="translate(507,207)"/>
<path d="M0 0 C2.97 0.495 2.97 0.495 6 1 C4.35 2.65 2.7 4.3 1 6 C0.67 4.02 0.34 2.04 0 0 Z " fill="#171717" transform="translate(369,198)"/>
<path d="M0 0 C0.33 0.66 0.66 1.32 1 2 C1.99 2.33 2.98 2.66 4 3 C4 6.50935186 3.62457273 9.56484998 3 13 C2.67 13 2.34 13 2 13 C1.34 8.71 0.68 4.42 0 0 Z " fill="#101010" transform="translate(593,144)"/>
<path d="M0 0 C2.31 0.33 4.62 0.66 7 1 C7 1.99 7 2.98 7 4 C5.68 4.33 4.36 4.66 3 5 C1 2 1 2 0 0 Z " fill="#171717" transform="translate(414,145)"/>
<path d="M0 0 C0.99 0.33 1.98 0.66 3 1 C2.01 4.3 1.02 7.6 0 11 C-0.66 9.68 -1.32 8.36 -2 7 C-1.34 7 -0.68 7 0 7 C-0.2784375 5.824375 -0.2784375 5.824375 -0.5625 4.625 C-1 2 -1 2 0 0 Z " fill="#121212" transform="translate(533,138)"/>
<path d="M0 0 C0.86625 0.3403125 0.86625 0.3403125 1.75 0.6875 C-5 4.6875 -5 4.6875 -7.25 4.6875 C-6.92 3.3675 -6.59 2.0475 -6.25 0.6875 C-6.25 1.3475 -6.25 2.0075 -6.25 2.6875 C-5.6725 2.171875 -5.095 1.65625 -4.5 1.125 C-2.25 -0.3125 -2.25 -0.3125 0 0 Z " fill="#0E0E0E" transform="translate(600.25,224.3125)"/>
<path d="M0 0 C4.21912747 0.4794463 6.79663178 1.16625119 10 4 C9.01 4.33 8.02 4.66 7 5 C7 4.34 7 3.68 7 3 C6.01 3.33 5.02 3.66 4 4 C2.68 2.68 1.36 1.36 0 0 Z " fill="#0E0E0E" transform="translate(454,154)"/>
<path d="M0 0 C1.258125 0.12375 2.51625 0.2475 3.8125 0.375 C4.87404297 0.47941406 4.87404297 0.47941406 5.95703125 0.5859375 C8 1 8 1 11 3 C3 3 3 3 1.3125 1.5 C0.879375 1.005 0.44625 0.51 0 0 Z " fill="#121212" transform="translate(578,92)"/>
<path d="M0 0 C2.5625 2.25 2.5625 2.25 5 5 C4.8125 7.3125 4.8125 7.3125 4 9 C0 3.375 0 3.375 0 0 Z " fill="#101010" transform="translate(501,196)"/>
</svg>
